<?xml version="1.0" encoding="UTF-8"?>
<svg viewBox="0 0 702.85712 774.28571" xmlns="http://www.w3.org/2000/svg">
 <defs>
  <filter id="b">
   <feGaussianBlur stdDeviation="18.44727"/>
  </filter>
  <radialGradient id="a" cx="976.46" cy="571.72" r="301.56" gradientTransform="matrix(.97158 1.5349 -.92083 .58289 567.21 -1264.3)" gradientUnits="userSpaceOnUse">
   <stop stop-color="#ffd42a" offset="0"/>
   <stop stop-color="#c69e00" offset="1"/>
  </radialGradient>
 </defs>
 <g transform="translate(-705.71 -366.65)">
  <path d="m1206.6 429.38c-137.87 1.7484-255.26 88.927-301.66 211h-120.19l-36.094 97.125h135.56c-0.36063 6.2879-0.53125 12.622-0.53125 19 0 11.436 0.57201 22.741 1.7188 33.875h-100.66l-36.094 97.125h162.38c50.542 115.43 165.77 196.16 299.78 196.16 48.186 0 93.952-10.422 135.16-29.156l-87.562-87.562c-15.316 3.4539-31.24 5.2812-47.594 5.2812-69.814 0-131.89-33.233-171.31-84.719h123.69l36.094-97.125h-201.5c-1.7425-11.036-2.6562-22.351-2.6562-33.875 0-6.4049 0.29624-12.736 0.84375-19h167.22l36.094-97.125h-170.22c38.338-59.879 105.42-99.594 181.75-99.594 28.996 0 56.642 5.7662 81.906 16.156l56.062-97.062c-41.936-19.55-88.675-30.5-137.97-30.5-1.4109 0-2.8122-0.01784-4.2188 0z" filter="url(#b)"/>
  <path d="m1201.6 423.38c-137.87 1.7484-255.26 88.927-301.66 211h-120.19l-36.094 97.125h135.56c-0.36063 6.2879-0.53125 12.622-0.53125 19 0 11.436 0.57201 22.741 1.7188 33.875h-100.66l-36.094 97.125h162.38c50.542 115.43 165.77 196.16 299.78 196.16 48.186 0 93.952-10.422 135.16-29.156l-87.562-87.562c-15.316 3.4539-31.24 5.2812-47.594 5.2812-69.814 0-131.89-33.233-171.31-84.719h123.69l36.094-97.125h-201.5c-1.7425-11.036-2.6562-22.351-2.6562-33.875 0-6.4049 0.29624-12.736 0.84375-19h167.22l36.094-97.125h-170.22c38.338-59.879 105.42-99.594 181.75-99.594 28.996 0 56.642 5.7662 81.906 16.156l56.062-97.062c-41.936-19.55-88.675-30.5-137.97-30.5-1.4109 0-2.8122-0.01784-4.2188 0z" fill="url(#a)" stroke="#2b2200" stroke-linecap="round" stroke-linejoin="round" stroke-opacity=".50644" stroke-width="10"/>
 </g>
</svg>
